<svg xmlns="http://www.w3.org/2000/svg" viewBox="0 0 128 128" role="img" aria-label="Gilded Goose">
  <circle cx="64" cy="64" r="58" fill="#1a1a1c" stroke="#c9a962" stroke-width="2.5"/>
  <path fill="#c9a962" d="M36 78c6-22 26-34 46-28 8 3 14 10 14 18 0 14-12 26-28 30-10 3-20 1-26-4-3 2-6 5-11 5-4 0-7-2-7-5 0-4 4-7 12-10z"/>
  <path fill="#e8d5a8" d="M78 44c8 2 14 8 16 16 2-1 6-2 10 1 3 2 4 6 2 9-3 5-10 6-15 4 2 6 0 12-5 16-6 5-14 5-20 1 6-8 8-18 5-28 3-6 2-13-3-19z"/>
  <circle cx="88" cy="52" r="3" fill="#1a1a1c"/>
</svg>
